HIERARCHY
ROOT Hips
{
  OFFSET 13.6774 106.653 -34.4427
  CHANNELS 6 Xposition Yposition Zposition Zrotation Xrotation Yrotation
  JOINT ToSpine
  {
    OFFSET -2.69724 7.43032 -0.144315
    CHANNELS 3 Zrotation Xrotation Yrotation
    JOINT Spine
    {
      OFFSET -0.0310711 10.7595 1.96963
      CHANNELS 3 Zrotation Xrotation Yrotation
      JOINT Spine1
      {
        OFFSET 19.9056 3.91189 0.764692
        CHANNELS 3 Zrotation Xrotation Yrotation
        JOINT Neck
        {
          OFFSET 25.9749 7.03908 -0.130764
          CHANNELS 3 Zrotation Xrotation Yrotation
          JOINT Head
          {
            OFFSET 9.52751 0.295786 -0.907742
            CHANNELS 3 Zrotation Xrotation Yrotation
            End Site
            {
              OFFSET 16.4037 0.713936 2.7358
            }
          }
        }
        JOINT LeftShoulder
        {
          OFFSET 17.7449 4.33886 11.7777
          CHANNELS 3 Zrotation Xrotation Yrotation
          JOINT LeftArm
          {
            OFFSET 0.911315 1.27913 9.80584
            CHANNELS 3 Zrotation Xrotation Yrotation
            JOINT LeftForeArm
            {
              OFFSET 28.6126 1.18197 -3.53199
              CHANNELS 3 Zrotation Xrotation Yrotation
              JOINT LeftHand
              {
                OFFSET 27.5088 0.0218783 0.327423
                CHANNELS 3 Zrotation Xrotation Yrotation
                End Site
                {
                  OFFSET 18.6038 -0.000155887 0.382096
                }
              }
            }
          }
        }
        JOINT RightShoulder
        {
          OFFSET 17.1009 2.89543 -12.2328
          CHANNELS 3 Zrotation Xrotation Yrotation
          JOINT RightArm
          {
            OFFSET 1.4228 0.178766 -10.211
            CHANNELS 3 Zrotation Xrotation Yrotation
            JOINT RightForeArm
            {
              OFFSET 28.733 1.87905 2.64907
              CHANNELS 3 Zrotation Xrotation Yrotation
              JOINT RightHand
              {
                OFFSET 27.4588 0.290562 -0.101845
                CHANNELS 3 Zrotation Xrotation Yrotation
                End Site
                {
                  OFFSET 17.8396 -0.255518 -0.000602873
                }
              }
            }
          }
        }
      }
    }
  }
  JOINT LeftUpLeg
  {
    OFFSET -5.61296 -2.22332 -10.2353
    CHANNELS 3 Zrotation Xrotation Yrotation
    JOINT LeftLeg
    {
      OFFSET 2.56703 -44.7417 -7.93097
      CHANNELS 3 Zrotation Xrotation Yrotation
      JOINT LeftFoot
      {
        OFFSET 3.16933 -46.5642 -3.96578
        CHANNELS 3 Zrotation Xrotation Yrotation
        JOINT LeftToeBase
        {
          OFFSET 0.346054 -6.02161 12.8035
          CHANNELS 3 Zrotation Xrotation Yrotation
          End Site
          {
            OFFSET 0.134235 -1.35082 5.13018
          }
        }
      }
    }
  }
  JOINT RightUpLeg
  {
    OFFSET -5.7928 -1.72406 10.6446
    CHANNELS 3 Zrotation Xrotation Yrotation
    JOINT RightLeg
    {
      OFFSET -2.57161 -44.7178 -7.85259
      CHANNELS 3 Zrotation Xrotation Yrotation
      JOINT RightFoot
      {
        OFFSET -3.10148 -46.5936 -4.03391
        CHANNELS 3 Zrotation Xrotation Yrotation
        JOINT RightToeBase
        {
          OFFSET -0.0828122 -6.13587 12.8035
          CHANNELS 3 Zrotation Xrotation Yrotation
          End Site
          {
            OFFSET -0.131328 -1.35082 5.13018
          }
        }
      }
    }
  }
}
MOTION
Frames: 12
Frame Time: 0.03333333333333333
0.0000 93.1000 0.0000 73.3544 -6.3998 -1.2924 -70.8067 -0.5074 87.7689 93.5246 73.6624 -9.2620 2.2521 20.7957 7.0877 -111.9324 23.8738 158.4055 -170.6894 69.0417 -154.9644 -0.2435 -15.7346 -15.2503 -73.1234 49.0644 -139.0623 12.7051 -4.6631 -106.2423 -0.1785 -0.8289 -0.1862 -2.1634 7.8118 30.1796 -135.2999 -19.0655 82.0673 17.2020 5.9066 107.5121 -0.0230 -0.1202 -0.1815 -46.7535 7.4448 86.8949 -3.7668 44.9169 -10.9672 -0.8702 -15.2340 -2.1829 3.8261 -10.7415 10.4312 -46.9872 -19.2764 73.8293 1.9340 28.8368 -9.8462 -4.4594 2.0646 -0.1306 -0.7094 -7.9386 12.5317 
0.0000 93.1000 0.0000 73.2227 -6.3578 -0.6222 -70.7829 -0.0532 87.7870 92.8657 73.2543 -9.0989 2.5206 20.5431 7.1194 -111.2804 23.9629 157.4310 -170.3751 69.1120 -155.7579 0.0118 -15.8534 -15.6884 -72.9695 49.2190 -139.0802 13.0769 -4.8334 -106.0078 0.2134 -0.9392 -0.2044 -1.9372 7.6597 30.4052 -134.7106 -19.2316 81.9514 17.6671 5.9384 107.5302 0.3285 0.0127 -0.0511 -47.1223 7.8514 86.8399 -4.1909 44.7532 -11.2838 -0.9889 -14.6483 -2.2269 3.7984 -11.0782 11.4408 -47.1641 -19.3982 73.5246 1.7647 29.0687 -9.7752 -3.4862 2.3955 0.1419 -0.8754 -7.6262 12.2036 
0.0000 93.1000 0.0000 74.3652 -5.9868 -0.2201 -70.8142 -0.0801 87.8625 90.2070 73.0827 -6.8683 2.9290 20.6192 7.3836 -110.5247 24.2334 156.8613 -168.4074 69.9645 -159.2402 0.0545 -15.7753 -15.8028 -72.3582 48.8222 -139.1830 13.1374 -5.0310 -106.2329 -0.1215 -0.8994 0.1089 -1.9944 7.7863 30.6495 -134.1905 -19.3223 81.1314 16.5112 6.6037 108.5636 0.1853 -0.0319 -0.1135 -47.0711 7.7904 87.1346 -3.7745 44.7605 -11.6407 -1.1592 -15.4274 -1.9974 3.2017 -11.0506 10.6388 -47.1637 -19.8708 72.7250 1.9107 29.9859 -10.9754 -4.8662 2.7199 0.0896 -0.8627 -8.9862 13.5201 
0.0000 93.1000 0.0000 74.2355 -5.9974 -0.2625 -70.7971 -0.3164 87.7591 88.8210 73.1820 -5.7192 2.8155 20.3580 7.0334 -111.7617 24.3296 156.8466 -168.3565 70.3650 -160.1086 -0.1236 -16.0183 -15.8577 -71.9008 48.8902 -139.3634 12.9343 -4.9068 -106.1401 -0.4332 -0.9366 0.4070 -2.2804 7.9546 30.6074 -134.3081 -20.3478 80.7972 16.6511 5.7817 108.8859 -0.1673 0.0054 -0.2186 -47.0493 8.0075 86.9728 -3.9585 44.8382 -11.1285 -0.7877 -16.1212 -1.6948 3.3102 -11.1238 11.1074 -47.2447 -19.4340 72.6097 2.1431 30.2253 -10.7352 -4.8928 2.3819 -0.4052 -1.2091 -9.3903 13.5055 
0.0000 93.1000 0.0000 74.2063 -5.9233 0.1743 -70.9442 0.1092 87.8262 88.5690 72.9719 -4.8261 3.1610 20.3970 7.0622 -111.7863 24.9144 155.5959 -169.7647 70.9393 -158.0684 0.1240 -15.8486 -16.1406 -72.3666 48.8774 -139.1636 12.8779 -4.8649 -106.4594 -0.2242 -0.8438 0.1438 -1.8342 7.9326 30.4922 -134.2156 -20.1897 80.7812 17.3061 5.8940 108.7439 0.3572 -0.1280 -0.0824 -47.5473 8.1465 87.0055 -3.7071 45.1627 -10.8416 -0.7548 -15.0054 -2.1195 3.6005 -11.3181 10.9227 -47.4003 -19.1550 73.3224 1.2234 29.9124 -9.3107 -4.5332 1.9845 0.0928 -0.2114 -8.3025 11.0236 
0.0000 93.1000 0.0000 73.8537 -5.9614 -0.5679 -70.9138 -0.1389 87.7471 88.6580 73.1865 -4.8816 3.0283 20.1061 6.7428 -111.8947 24.7977 156.8209 -169.8414 71.2078 -158.0069 -0.0909 -15.9525 -16.3158 -71.1859 48.7835 -139.8843 13.0484 -5.2412 -106.3770 -0.1456 -0.8056 0.1815 -2.0188 7.9056 30.3868 -133.8247 -20.0757 80.7179 16.3567 5.8384 108.7458 0.1475 -0.1519 -0.2561 -47.0390 8.1900 87.5022 -3.5867 45.1319 -10.6237 -1.0848 -14.8365 -1.8717 3.5258 -11.0035 11.3496 -47.7382 -18.6351 73.2472 2.0181 30.2925 -8.5125 -4.3626 2.2825 -0.0323 -0.7325 -7.7583 10.8136 
0.0000 93.1000 0.0000 74.4875 -5.8798 0.0154 -70.9937 -0.3119 87.7231 88.1600 72.8158 -5.4183 2.9700 19.7665 6.9684 -111.9885 24.8218 157.4066 -170.4474 70.8677 -157.8988 -0.3979 -15.9409 -16.3646 -70.6757 48.7657 -139.9403 13.6937 -5.1584 -105.8947 -0.1935 -0.4854 0.3867 -2.0758 8.0815 30.7300 -133.0054 -20.3908 80.8109 15.9497 5.3195 108.6446 0.2054 -0.4501 -0.0852 -47.3388 8.0975 87.7359 -4.2553 44.6715 -11.5905 -1.4379 -14.7860 -1.9827 4.4885 -11.3470 11.5753 -46.9613 -18.6941 72.7851 1.6479 30.4254 -8.4677 -4.6999 2.2931 0.0087 -0.0032 -10.0536 11.1891 
0.0000 93.1000 0.0000 74.0243 -6.7267 0.2361 -71.0446 -0.0862 87.7379 87.9112 72.9389 -3.7206 2.9340 19.8663 6.6370 -112.8101 24.8842 157.4705 -170.1748 71.0474 -158.7419 -0.2740 -15.9545 -16.1823 -69.9685 48.9719 -139.7150 13.6866 -5.3660 -106.2989 0.2001 -0.6822 0.0124 -2.0053 8.1796 30.5002 -133.1125 -20.0747 80.8856 15.7744 4.8947 108.8005 0.2764 -0.2532 -0.1043 -47.3980 7.7512 87.6460 -4.3389 44.6233 -11.3262 -0.9400 -15.3164 -2.2230 3.7923 -11.1439 10.4099 -48.1844 -19.3708 72.3231 2.0774 30.5815 -8.8328 -5.2669 1.8972 0.4204 0.2031 -9.6666 12.0365 
0.0000 93.1000 0.0000 73.5717 -6.0297 -0.1898 -71.2309 -0.7465 87.8382 87.8691 73.1068 -3.3069 3.1466 19.7788 5.9832 -112.8350 24.7358 157.0063 -169.6580 70.7728 -159.5327 -0.7640 -16.0482 -16.2185 -70.0902 48.4866 -140.7030 12.9859 -5.2001 -106.0942 -0.1728 -0.4043 0.3800 -2.3528 8.2444 30.7114 -133.7813 -19.5823 80.0967 15.5078 5.4058 108.8292 -0.0283 -0.5507 -0.0983 -47.5406 8.0079 86.9248 -4.3660 45.0185 -10.8354 -0.9480 -15.2004 -1.9605 3.2141 -10.6110 11.2084 -47.8045 -18.9645 73.1105 1.9144 30.4203 -9.0229 -5.9081 1.7485 -0.2133 0.0318 -10.3361 11.9735 
0.0000 93.1000 0.0000 74.4619 -6.0621 0.0557 -71.0567 -0.4040 87.9021 87.7985 73.0340 -4.0191 3.1506 19.9209 6.3877 -112.6842 24.9720 156.1604 -170.7076 70.9722 -159.2396 -0.4958 -15.8573 -16.0748 -69.5328 48.6365 -141.0378 13.1634 -4.8195 -105.9039 -0.1813 -0.4998 0.4103 -2.1644 8.1661 31.0162 -133.7217 -20.1078 79.9987 15.7426 4.9245 108.9151 0.1839 -0.4099 0.2654 -47.2845 7.8978 87.8179 -4.2210 45.0268 -10.7630 -0.9809 -15.3128 -2.0656 3.5091 -10.8920 10.8925 -47.9658 -18.6825 73.1261 2.0097 30.4189 -8.9131 -5.6632 2.2105 -0.0188 0.1502 -10.0507 10.9119 
0.0000 93.1000 0.0000 74.1806 -6.0370 -0.6667 -71.0125 -0.7323 87.9632 87.6272 72.7915 -4.3968 3.0572 20.2548 6.3338 -112.1819 25.1438 156.4767 -171.3537 70.6900 -158.4863 -0.5847 -15.9665 -16.3200 -70.0601 48.6991 -140.9583 13.2590 -5.2349 -105.7072 -0.4905 -0.6642 0.5343 -2.5473 8.3984 31.1180 -133.0823 -20.0723 80.1209 15.9214 4.4720 108.7543 -0.3116 -0.2000 -0.2002 -47.7392 7.4153 87.9456 -4.0853 45.0162 -11.3732 -0.8527 -14.9561 -1.6046 3.6564 -11.2829 10.8592 -48.0438 -18.7340 73.0017 2.1279 30.1577 -8.9043 -5.3938 2.2953 -0.7323 -0.4733 -10.0458 9.9349 
0.0000 93.1000 0.0000 74.2296 -5.9283 -0.9094 -71.1011 0.0736 87.9870 86.8334 72.9879 -4.0352 3.1048 19.9596 6.7147 -112.3032 24.8608 155.8985 -171.0936 70.9163 -157.9889 0.2080 -16.0492 -16.1686 -69.9266 48.8798 -141.0806 13.7717 -5.0049 -106.0209 -0.2297 -1.3892 0.2139 -2.4234 7.9807 31.2255 -133.2534 -20.6045 80.4327 15.1438 4.6736 108.8071 -0.2268 0.6767 -0.3855 -46.9874 7.8396 87.7574 -3.7643 44.7873 -10.9877 -1.0237 -15.5291 -1.3306 2.9999 -10.4493 10.4537 -47.9490 -18.6569 73.1180 1.8431 30.0519 -8.7536 -5.3472 3.2148 -0.4238 -0.4348 -11.7490 10.0206 
